# xmcd
#
# Track frame offsets:
#	150
#	10515
#	22050
#	31868
#	42893
#	54211
#	63819
#	73202
#	85532
#	97847
#	109712
#	121525
#
# Disc length: 1777 seconds
#
# Revision: 1
# Processed by: cddbd v1.5.2PL0 Copyright (c) Steve Scherf et al.
# Submitted via: audiograbber 1.83.01
#
DISCID=7f06ef0c
DTITLE=Eddy Arnold - The Best Of
DYEAR=1967
DGENRE=Country
TTITLE0=Bouquet of Roses
TTITLE1=Make The World Go Away
TTITLE2=Anytime
TTITLE3=I'll Hold You In My Heart (Till I Can Hold You In My Arms)
TTITLE4=I Want To Go With You
TTITLE5=The Last Word In Lonesome Is Me
TTITLE6=What's He Doin' In My World
TTITLE7=Just A Little Lovin' (Will Go A Long Way)
TTITLE8=I Really Don't Want To Know
TTITLE9=You Don't Know Me
TTITLE10=That's How Much I Love You
TTITLE11=Cattle Call
EXTD=
EXTT0=
EXTT1=
EXTT2=
EXTT3=
EXTT4=
EXTT5=
EXTT6=
EXTT7=
EXTT8=
EXTT9=
EXTT10=
EXTT11=
PLAYORDER=
